<svg width="696" height="476" viewBox="0 0 696 476" fill="none" xmlns="http://www.w3.org/2000/svg">
<g filter="url(#filter0_d)">
<rect x="96" y="3" width="595" height="447" rx="20" fill="#F5F8FB"/>
<path opacity="0.1" d="M137.793 274.636H117.857V294.572H137.793V274.636Z" fill="#1E2758"/>
<path opacity="0.1" d="M71.844 344.154C72.4819 344.518 73.1338 344.855 73.7927 345.219V344.869H79.4007V348.023L80.5924 348.577V344.869H86.2003V350.932C86.3078 350.986 86.4206 351.028 86.5368 351.058V344.154H71.844Z" fill="#1E2758"/>
<path opacity="0.1" d="M98.706 469C136.43 469 167.011 464.088 167.011 458.03C167.011 451.971 136.43 447.059 98.706 447.059C60.9825 447.059 30.4015 451.971 30.4015 458.03C30.4015 464.088 60.9825 469 98.706 469Z" fill="#1E2758"/>
<path d="M100.907 247.873H96.512V346.831H100.907V247.873Z" fill="#535461"/>
<path d="M128.526 346.53L128.253 350.988L127.86 357.297L127.699 359.919L127.314 366.228L127.145 368.849L126.753 375.158L122.322 446.709C122.13 449.787 120.772 452.676 118.524 454.789C116.276 456.901 113.308 458.077 110.223 458.079H87.1888C84.105 458.077 81.1377 456.901 78.8911 454.788C76.6445 452.676 75.2876 449.786 75.0967 446.709L70.6875 375.109L70.2949 368.8L70.1337 366.179L69.7412 359.87L69.5799 357.248L69.1874 350.939L68.907 346.481C68.8583 345.623 68.9854 344.764 69.2806 343.957C69.5758 343.149 70.0327 342.411 70.6235 341.787C71.2143 341.163 71.9264 340.666 72.7161 340.327C73.5058 339.987 74.3564 339.813 75.2159 339.814H122.329C123.186 339.822 124.031 340.005 124.814 340.351C125.597 340.698 126.3 341.202 126.881 341.831C127.462 342.46 127.907 343.202 128.19 344.01C128.473 344.818 128.588 345.676 128.526 346.53Z" fill="#3F3D56"/>
<path d="M128.253 350.988L127.86 357.276H69.5519L69.1593 350.988H128.253Z" fill="#9D9CB5"/>
<path d="M127.699 359.898L127.314 366.193H70.1057L69.7131 359.898H127.699Z" fill="#9D9CB5"/>
<path d="M127.145 368.821L126.76 375.109H70.6593L70.2667 368.821H127.145Z" fill="#9D9CB5"/>
<path d="M62.4507 284.962C88.0439 303.482 98.727 332.447 98.727 332.447C98.727 332.447 67.8834 331.388 42.2832 312.868C16.6831 294.348 6.021 265.39 6.021 265.39C6.021 265.39 36.8506 266.442 62.4507 284.962Z" fill="#1E2758"/>
<path d="M6 265.39C6 265.39 38.0213 283.16 48.2908 297.874C58.5603 312.588 98.727 332.447 98.727 332.447" stroke="#535461" stroke-width="2" stroke-miterlimit="10"/>
<path d="M78.9732 247.655C92.9018 257.728 98.7271 273.494 98.7271 273.494C98.7271 273.494 81.9383 272.919 68.0026 262.846C54.0669 252.772 48.2557 237 48.2557 237C48.2557 237 65.0375 237.575 78.9732 247.655Z" fill="#1E2758"/>
<path d="M48.2557 237C48.2557 237 65.6824 246.674 71.2693 254.679C76.8562 262.684 98.7271 273.494 98.7271 273.494" stroke="#535461" stroke-width="2" stroke-miterlimit="10"/>
<path d="M118.951 272.694C102.947 290.282 99.5612 313.268 99.5612 313.268C99.5612 313.268 122.126 307.73 138.116 290.135C154.105 272.54 157.505 249.562 157.505 249.562C157.505 249.562 134.954 255.107 118.951 272.694Z" fill="#1E2758"/>
<path d="M157.519 249.569C157.519 249.569 136.672 267.598 131.372 280.02C126.073 292.441 99.5612 313.268 99.5612 313.268" stroke="#535461" stroke-width="2" stroke-miterlimit="10"/>
<circle cx="132" cy="35" r="11" fill="#FE0752"/>
<circle cx="166" cy="35" r="11" fill="#FF6A00"/>
<circle cx="200" cy="35" r="11" fill="#00B531"/>
<rect x="249" y="19" width="351" height="33" rx="10" fill="#1C244A" fill-opacity="0.51"/>
<circle cx="425" cy="35" r="4" fill="black"/>
<rect x="299" y="32" width="107" height="5" rx="2.5" fill="#1C244A"/>
<rect x="444" y="32" width="107" height="5" rx="2.5" fill="#1C244A"/>
<g filter="url(#filter1_d)">
<rect x="132" y="124" width="236" height="55" rx="10" fill="white"/>
<rect x="189" y="138" width="110" height="8" rx="4" fill="#C4C4C4"/>
<rect x="189" y="158" width="163" height="8" rx="4" fill="#C4C4C4"/>
<path d="M177 147V166C177 166.796 176.684 167.559 176.121 168.121C175.559 168.684 174.796 169 174 169H144C143.204 169 142.441 168.684 141.879 168.121C141.316 167.559 141 166.796 141 166V136C141 135.204 141.316 134.441 141.879 133.879C142.441 133.316 143.204 133 144 133H165" stroke="#C4C4C4" stroke-linecap="round" stroke-linejoin="round"/>
<path d="M151 147L161 155L176 134" stroke="#1E2758" stroke-width="2" stroke-linecap="round" stroke-linejoin="round"/>
</g>
<g filter="url(#filter2_d)">
<rect x="131" y="206" width="236" height="55" rx="10" fill="white"/>
<rect x="188" y="220" width="110" height="8" rx="4" fill="#C4C4C4"/>
<rect x="188" y="240" width="163" height="8" rx="4" fill="#C4C4C4"/>
<path d="M176 229V248C176 248.796 175.684 249.559 175.121 250.121C174.559 250.684 173.796 251 173 251H143C142.204 251 141.441 250.684 140.879 250.121C140.316 249.559 140 248.796 140 248V218C140 217.204 140.316 216.441 140.879 215.879C141.441 215.316 142.204 215 143 215H164" stroke="#C4C4C4" stroke-linecap="round" stroke-linejoin="round"/>
<path d="M150 229L160 237L175 216" stroke="#1E2758" stroke-width="2" stroke-linecap="round" stroke-linejoin="round"/>
</g>
<g filter="url(#filter3_d)">
<rect x="130" y="288" width="236" height="55" rx="10" fill="white"/>
<rect x="187" y="302" width="110" height="8" rx="4" fill="#C4C4C4"/>
<rect x="187" y="322" width="163" height="8" rx="4" fill="#C4C4C4"/>
<path d="M175 311V330C175 330.796 174.684 331.559 174.121 332.121C173.559 332.684 172.796 333 172 333H142C141.204 333 140.441 332.684 139.879 332.121C139.316 331.559 139 330.796 139 330V300C139 299.204 139.316 298.441 139.879 297.879C140.441 297.316 141.204 297 142 297H163" stroke="#C4C4C4" stroke-linecap="round" stroke-linejoin="round"/>
<path d="M149 311L159 319L174 298" stroke="#1E2758" stroke-width="2" stroke-linecap="round" stroke-linejoin="round"/>
</g>
<rect x="400" y="89" width="257" height="104" rx="10" fill="#1C244A"/>
<rect x="428.282" y="111.961" width="135.263" height="10.8052" rx="5.4026" fill="#C4C4C4"/>
<rect x="428.282" y="134.922" width="168.464" height="10.8052" rx="5.4026" fill="#C4C4C4"/>
<rect x="428.282" y="157.883" width="200.435" height="10.8052" rx="5.4026" fill="#C4C4C4"/>
<rect x="400" y="220" width="257" height="158" rx="10" fill="#1C244A"/>
<path d="M561 299V292.614C561 292.478 561.039 292.346 561.11 292.239C561.181 292.131 561.281 292.055 561.393 292.021C561.506 291.987 561.625 291.997 561.732 292.051C561.839 292.104 561.928 292.198 561.984 292.316L565.016 298.684C565.072 298.802 565.161 298.896 565.268 298.949C565.375 299.003 565.494 299.013 565.607 298.979C565.719 298.945 565.819 298.869 565.89 298.761C565.961 298.654 566 298.522 566 298.386V292" stroke="white" stroke-linecap="round" stroke-linejoin="round"/>
<path d="M560 294.333H567" stroke="white" stroke-linecap="round" stroke-linejoin="round"/>
<path d="M560 296.667H567" stroke="white" stroke-linecap="round" stroke-linejoin="round"/>
<path d="M490 297.288C490.095 298.359 490.973 299.12 492.309 299.218V300H492.979V299.218C494.438 299.103 495.343 298.294 495.343 297.097C495.343 296.075 494.735 295.483 493.443 295.15L492.979 295.03V292.586C493.7 292.657 494.187 293.045 494.31 293.625H495.255C495.148 292.596 494.265 291.858 492.979 291.777V291H492.309V291.793C491.062 291.941 490.206 292.739 490.206 293.821C490.206 294.756 490.827 295.418 491.917 295.697L492.309 295.801V298.392C491.57 298.283 491.062 297.878 490.939 297.288H490ZM492.18 294.822C491.509 294.653 491.151 294.291 491.151 293.783C491.151 293.176 491.604 292.728 492.309 292.608V294.855L492.18 294.822V294.822ZM493.203 296.025C494.03 296.233 494.393 296.577 494.393 297.162C494.393 297.868 493.862 298.338 492.979 298.409V295.969L493.203 296.025V296.025Z" fill="white"/>
<path d="M528.5 344C554.69 344 576 322.69 576 296.5C576 270.31 554.69 249 528.5 249C502.31 249 481 270.31 481 296.5C481 322.69 502.31 344 528.5 344ZM528.5 251.969C553.055 251.969 573.031 271.945 573.031 296.5C573.031 321.055 553.055 341.031 528.5 341.031C503.945 341.031 483.969 321.055 483.969 296.5C483.969 271.945 503.945 251.969 528.5 251.969Z" fill="#C4C4C4"/>
<path d="M540.556 313.624C540.694 313.763 540.857 313.873 541.038 313.949C541.218 314.024 541.412 314.063 541.607 314.063C541.803 314.063 541.996 314.024 542.176 313.949C542.357 313.873 542.52 313.763 542.658 313.624C542.936 313.346 543.093 312.968 543.093 312.575C543.093 312.181 542.936 311.803 542.658 311.525L528.5 297.37V276.666C528.5 276.272 528.344 275.895 528.065 275.616C527.787 275.338 527.409 275.182 527.016 275.182C526.622 275.182 526.244 275.338 525.966 275.616C525.688 275.895 525.531 276.272 525.531 276.666V297.985C525.531 298.379 525.689 298.756 525.965 299.036L540.556 313.624Z" fill="#CF6F80"/>
<path d="M528.5 263.844C530.14 263.844 531.469 262.515 531.469 260.875C531.469 259.235 530.14 257.906 528.5 257.906C526.86 257.906 525.531 259.235 525.531 260.875C525.531 262.515 526.86 263.844 528.5 263.844Z" fill="#C4C4C4"/>
<path d="M528.5 335.094C530.14 335.094 531.469 333.765 531.469 332.125C531.469 330.485 530.14 329.156 528.5 329.156C526.86 329.156 525.531 330.485 525.531 332.125C525.531 333.765 526.86 335.094 528.5 335.094Z" fill="#C4C4C4"/>
<path d="M504.75 275.719C506.39 275.719 507.719 274.39 507.719 272.75C507.719 271.11 506.39 269.781 504.75 269.781C503.11 269.781 501.781 271.11 501.781 272.75C501.781 274.39 503.11 275.719 504.75 275.719Z" fill="#C4C4C4"/>
<path d="M552.25 323.219C553.89 323.219 555.219 321.89 555.219 320.25C555.219 318.61 553.89 317.281 552.25 317.281C550.61 317.281 549.281 318.61 549.281 320.25C549.281 321.89 550.61 323.219 552.25 323.219Z" fill="#C4C4C4"/>
<path d="M555.219 275.719C556.858 275.719 558.188 274.39 558.188 272.75C558.188 271.11 556.858 269.781 555.219 269.781C553.579 269.781 552.25 271.11 552.25 272.75C552.25 274.39 553.579 275.719 555.219 275.719Z" fill="#C4C4C4"/>
<path d="M504.75 323.219C506.39 323.219 507.719 321.89 507.719 320.25C507.719 318.61 506.39 317.281 504.75 317.281C503.11 317.281 501.781 318.61 501.781 320.25C501.781 321.89 503.11 323.219 504.75 323.219Z" fill="#C4C4C4"/>
<path d="M619 3H671C682.046 3 691 11.9543 691 23V67H639C627.954 67 619 58.0457 619 47V3Z" fill="#C4C4C4"/>
<path d="M643 35.5833C643 36.1356 643.448 36.5833 644 36.5833H667C667.552 36.5833 668 36.1356 668 35.5833V33.4167C668 32.8644 667.552 32.4167 667 32.4167H644C643.448 32.4167 643 32.8644 643 33.4167V35.5833ZM643 46C643 46.5523 643.448 47 644 47H667C667.552 47 668 46.5523 668 46V43.8333C668 43.281 667.552 42.8333 667 42.8333H644C643.448 42.8333 643 43.281 643 43.8333V46ZM644 22C643.448 22 643 22.4477 643 23V25.1667C643 25.719 643.448 26.1667 644 26.1667H667C667.552 26.1667 668 25.719 668 25.1667V23C668 22.4477 667.552 22 667 22H644Z" fill="#1C244A"/>
</g>
<defs>
<filter id="filter0_d" x="0.514893" y="0" width="695.485" height="476" filterUnits="userSpaceOnUse" color-interpolation-filters="sRGB">
<feFlood flood-opacity="0" result="BackgroundImageFix"/>
<feColorMatrix in="SourceAlpha" type="matrix" values="0 0 0 0 0 0 0 0 0 0 0 0 0 0 0 0 0 0 127 0" result="hardAlpha"/>
<feOffset dy="2"/>
<feGaussianBlur stdDeviation="2.5"/>
<feComposite in2="hardAlpha" operator="out"/>
<feColorMatrix type="matrix" values="0 0 0 0 0 0 0 0 0 0 0 0 0 0 0 0 0 0 0.15 0"/>
<feBlend mode="normal" in2="BackgroundImageFix" result="effect1_dropShadow"/>
<feBlend mode="normal" in="SourceGraphic" in2="effect1_dropShadow" result="shape"/>
</filter>
<filter id="filter1_d" x="127" y="121" width="246" height="65" filterUnits="userSpaceOnUse" color-interpolation-filters="sRGB">
<feFlood flood-opacity="0" result="BackgroundImageFix"/>
<feColorMatrix in="SourceAlpha" type="matrix" values="0 0 0 0 0 0 0 0 0 0 0 0 0 0 0 0 0 0 127 0" result="hardAlpha"/>
<feOffset dy="2"/>
<feGaussianBlur stdDeviation="2.5"/>
<feComposite in2="hardAlpha" operator="out"/>
<feColorMatrix type="matrix" values="0 0 0 0 0 0 0 0 0 0 0 0 0 0 0 0 0 0 0.15 0"/>
<feBlend mode="normal" in2="BackgroundImageFix" result="effect1_dropShadow"/>
<feBlend mode="normal" in="SourceGraphic" in2="effect1_dropShadow" result="shape"/>
</filter>
<filter id="filter2_d" x="126" y="203" width="246" height="65" filterUnits="userSpaceOnUse" color-interpolation-filters="sRGB">
<feFlood flood-opacity="0" result="BackgroundImageFix"/>
<feColorMatrix in="SourceAlpha" type="matrix" values="0 0 0 0 0 0 0 0 0 0 0 0 0 0 0 0 0 0 127 0" result="hardAlpha"/>
<feOffset dy="2"/>
<feGaussianBlur stdDeviation="2.5"/>
<feComposite in2="hardAlpha" operator="out"/>
<feColorMatrix type="matrix" values="0 0 0 0 0 0 0 0 0 0 0 0 0 0 0 0 0 0 0.15 0"/>
<feBlend mode="normal" in2="BackgroundImageFix" result="effect1_dropShadow"/>
<feBlend mode="normal" in="SourceGraphic" in2="effect1_dropShadow" result="shape"/>
</filter>
<filter id="filter3_d" x="125" y="285" width="246" height="65" filterUnits="userSpaceOnUse" color-interpolation-filters="sRGB">
<feFlood flood-opacity="0" result="BackgroundImageFix"/>
<feColorMatrix in="SourceAlpha" type="matrix" values="0 0 0 0 0 0 0 0 0 0 0 0 0 0 0 0 0 0 127 0" result="hardAlpha"/>
<feOffset dy="2"/>
<feGaussianBlur stdDeviation="2.5"/>
<feComposite in2="hardAlpha" operator="out"/>
<feColorMatrix type="matrix" values="0 0 0 0 0 0 0 0 0 0 0 0 0 0 0 0 0 0 0.15 0"/>
<feBlend mode="normal" in2="BackgroundImageFix" result="effect1_dropShadow"/>
<feBlend mode="normal" in="SourceGraphic" in2="effect1_dropShadow" result="shape"/>
</filter>
</defs>
</svg>
